<svg xmlns="http://www.w3.org/2000/svg" width="16" height="16" fill="none" xmlns:v="https://vecta.io/nano"><g clip-path="url(#A)" stroke="#6439df"><path d="M7.328 2.756c.416-.242.928-.242 1.344 0l3.486 2.031c.417.243.675.693.675 1.183v4.062c0 .49-.259.94-.675 1.183l-3.486 2.031c-.416.242-.928.242-1.344 0l-3.486-2.031c-.417-.243-.675-.693-.675-1.183V5.969c0-.49.259-.94.675-1.183l3.486-2.031z"/><path d="M9.333 5.333L6.667 8h2.667l-2.667 2.667" stroke-linecap="round" stroke-linejoin="round"/></g><defs><clipPath id="A"><path fill="#fff" d="M0 0h16v16H0z"/></clipPath></defs></svg>